HIERARCHY
ROOT Hips
{
	OFFSET 0.000000 0.000000 0.000000 
	CHANNELS 6 Xposition Yposition Zposition Zrotation Yrotation Xrotation
	JOINT LeftUpLeg
	{
		OFFSET 1.363060 -1.794630 0.839290 
		CHANNELS 3 Zrotation Yrotation Xrotation
		JOINT LeftLeg
		{
			OFFSET 2.448110 -6.726130 0.000000 
			CHANNELS 3 Zrotation Yrotation Xrotation
			JOINT LeftFoot
			{
				OFFSET 2.562200 -7.039590 0.000000 
				CHANNELS 3 Zrotation Yrotation Xrotation
				JOINT LeftToeBase
				{
					OFFSET 0.157640 -0.433110 2.322550 
					CHANNELS 3 Zrotation Yrotation Xrotation
					End Site
					{
						OFFSET 0.000000 0.000000 0.000000 
					}
				}
			}
		}
	}
	JOINT RightUpLeg
	{
		OFFSET -1.305520 -1.794630 0.839290 
		CHANNELS 3 Zrotation Yrotation Xrotation
		JOINT RightLeg
		{
			OFFSET -2.542530 -6.985550 0.000000 
			CHANNELS 3 Zrotation Yrotation Xrotation
			JOINT RightFoot
			{
				OFFSET -2.568260 -7.056230 0.000000 
				CHANNELS 3 Zrotation Yrotation Xrotation
				JOINT RightToeBase
				{
					OFFSET -0.164730 -0.452590 2.363150 
					CHANNELS 3 Zrotation Yrotation Xrotation
					End Site
					{
						OFFSET 0.000000 0.000000 0.000000 
					}
				}
			}
		}
	}
	JOINT Spine
	{
		OFFSET 0.028270 2.035590 -0.193380 
		CHANNELS 3 Zrotation Yrotation Xrotation
		JOINT Spine1
		{
			OFFSET 0.056720 2.048850 -0.042750 
			CHANNELS 3 Zrotation Yrotation Xrotation
			JOINT Neck1
			{
				OFFSET -0.054170 1.746240 0.172020 
				CHANNELS 3 Zrotation Yrotation Xrotation
				JOINT Head
				{
					OFFSET 0.104070 1.761360 -0.123970 
					CHANNELS 3 Zrotation Yrotation Xrotation
					End Site
					{
						OFFSET 0.000000 0.000000 0.000000 
					}
				}
			}
			JOINT LeftArm
			{
				OFFSET 3.362410 1.200890 -0.311210 
				CHANNELS 3 Zrotation Yrotation Xrotation
				JOINT LeftForeArm
				{
					OFFSET 4.983000 -0.000000 -0.000000 
					CHANNELS 3 Zrotation Yrotation Xrotation
					JOINT LeftHand
					{
						OFFSET 3.483560 -0.000000 -0.000000 
						CHANNELS 3 Zrotation Yrotation Xrotation
						JOINT LeftHandIndex1
						{
							OFFSET 0.715260 -0.000000 -0.000000 
							CHANNELS 3 Zrotation Yrotation Xrotation
							End Site
							{
								OFFSET 0.000000 0.000000 0.000000 
							}
						}
					}
				}
			}
			JOINT RightArm
			{
				OFFSET -3.136600 1.374050 -0.404650 
				CHANNELS 3 Zrotation Yrotation Xrotation
				JOINT RightForeArm
				{
					OFFSET -5.241900 -0.000000 -0.000000 
					CHANNELS 3 Zrotation Yrotation Xrotation
					JOINT RightHand
					{
						OFFSET -3.444170 -0.000000 -0.000000 
						CHANNELS 3 Zrotation Yrotation Xrotation
						JOINT RightHandIndex1
						{
							OFFSET -0.622530 -0.000000 -0.000000 
							CHANNELS 3 Zrotation Yrotation Xrotation
							End Site
							{
								OFFSET 0.000000 0.000000 0.000000 
							}
						}
					}
				}
			}
		}
	}
}
MOTION
Frames: 6
Frame Time: 0.041667
3.023669 17.745579 37.883883 7.276528 -1.899169 -5.892094 -23.503263 -4.247006 -4.604178 2.050195 9.727040 34.741049 2.294009 -3.527332 1.263865 0.655200 -5.177300 -14.414800 -0.656250 13.619785 -28.042326 -0.953744 -8.738218 22.713208 7.047826 -21.950919 11.413916 -0.001000 0.200600 -0.551200 3.963163 -3.484621 6.425848 8.915488 -1.878667 -8.666709 -2.570171 -15.112440 29.549196 -2.421200 -7.374200 12.075900 -87.611740 14.359692 18.310189 35.108387 -43.172488 -16.188174 0.287181 -2.327315 -10.656313 -7.125000 0.000000 0.000000 77.363268 3.418137 -33.859897 -23.503187 33.598271 -7.379755 -0.292837 0.571883 -46.599673 7.125000 0.000000 0.000000 
3.077921 17.762873 37.761277 7.403261 -1.990860 -5.977942 -23.805050 -4.410710 -4.249043 1.771596 9.409429 33.643110 2.107607 -2.946309 1.054197 0.609100 -4.995500 -13.895800 -0.759310 13.312238 -27.950847 -0.893256 -8.661883 22.473964 7.312788 -22.253128 10.369556 -0.003600 0.389400 -1.069900 3.918222 -3.596848 6.400994 9.077191 -1.926367 -8.668943 -2.588814 -15.072858 29.737667 -2.442300 -7.359000 12.213900 -87.637396 14.765590 18.419672 34.734433 -42.914677 -15.902527 0.277795 -2.347572 -10.156697 -7.125000 0.000000 0.000000 78.168886 2.479790 -33.460456 -24.770025 34.963012 -8.154728 -0.311367 0.588973 -50.225660 7.125000 0.000000 0.000000 
3.137628 17.779550 37.625391 7.475675 -1.859784 -5.801942 -24.070473 -4.837114 -4.316546 1.593080 9.224900 32.968370 2.018957 -2.662142 0.895957 0.530100 -4.665700 -12.957600 -0.743317 12.447539 -28.106892 -0.822127 -8.556399 22.062181 7.749962 -23.001460 9.367312 -0.006000 0.498900 -1.371000 3.831230 -3.733583 6.322740 9.033912 -1.983489 -8.686009 -2.440605 -15.089324 29.795048 -2.434700 -7.333200 12.335200 -87.527549 15.038137 18.721246 34.292291 -42.601166 -15.566044 0.279182 -2.356615 -9.492291 -7.125000 0.000000 0.000000 78.955072 2.066857 -33.988626 -25.690285 35.971080 -8.773661 -0.342483 0.611358 -52.775066 7.125000 0.000000 0.000000 
3.174688 17.808374 37.517917 6.853802 -2.554528 -6.004871 -23.343784 -4.375902 -4.454988 1.452986 9.088857 32.406684 2.023999 -2.564666 0.854557 0.466100 -4.379200 -12.146100 0.166247 12.537124 -27.848508 -0.754892 -8.479135 22.023191 8.443022 -24.074110 7.222421 -0.002000 0.287400 -0.789800 3.900439 -3.410665 6.559297 8.790897 -1.871022 -8.358612 -2.403940 -15.238693 29.555064 -2.492100 -7.348300 12.175800 -87.117066 15.166636 19.326074 33.642422 -42.141050 -15.081518 0.266876 -2.356519 -8.724005 -7.125000 0.000000 0.000000 79.782251 1.983677 -34.693096 -26.518236 36.814005 -9.312357 -0.356674 0.623428 -55.186853 7.125000 0.000000 0.000000 
3.197439 17.827934 37.364634 6.038540 -3.396097 -6.100612 -22.339737 -3.880817 -5.247141 1.454937 9.153568 32.453913 2.046476 -2.547030 1.111454 0.383800 -3.978400 -11.015800 1.297152 13.046283 -27.709840 -0.692906 -8.398082 22.055100 9.265806 -25.469154 4.677758 -0.017600 -0.856300 2.353400 4.045133 -3.075537 6.615072 8.772877 -1.715840 -8.516885 -2.693782 -15.267709 29.733979 -2.723200 -7.317000 12.243500 -86.694453 15.347252 19.729859 32.892670 -41.594560 -14.527560 0.242436 -2.354543 -8.017695 -7.125000 0.000000 0.000000 80.570879 1.731119 -34.643784 -27.564153 37.777175 -9.954689 -0.357057 0.627326 -57.955022 7.125000 0.000000 0.000000 
3.243455 17.850170 37.243778 6.178649 -3.493968 -6.247489 -22.670019 -3.706162 -5.541554 1.474825 9.174350 32.545587 2.051349 -2.621421 1.371874 0.308600 -3.571500 -9.874100 1.748655 11.747433 -28.015094 -0.752406 -8.571813 22.591531 9.549117 -25.867089 3.196167 -0.100800 -2.047100 5.635900 3.957198 -3.026917 6.000410 8.789896 -1.578093 -9.595062 -2.280985 -15.307563 29.464952 -2.197200 -7.449300 11.732400 -86.717094 17.510811 20.630748 32.594189 -41.408353 -14.332612 0.223438 -2.335560 -7.288166 -7.125000 0.000000 0.000000 80.982221 -0.648274 -34.485607 -28.731203 38.951160 -10.799964 -0.393212 0.640552 -60.451536 7.125000 0.000000 0.000000 
